<svg width="83" height="80" viewBox="0 0 83 80" fill="none" xmlns="http://www.w3.org/2000/svg">
<path d="M14.5526 25.9102L42.2609 41.9384L69.9691 25.9102" stroke="white" stroke-width="3" stroke-linecap="round" stroke-linejoin="round"/>
<path d="M42.2609 73.8995V41.9065" stroke="white" stroke-width="3" stroke-linecap="round" stroke-linejoin="round"/>
<path d="M69.974 47C69.9729 48.1132 70.5311 56.8086 69.974 57.7723C69.417 58.7361 68.6162 59.5364 67.6522 60.093L45.4348 72.7886C44.4698 73.3458 43.3752 73.6391 42.2609 73.6391C41.1466 73.6391 40.052 73.3458 39.087 72.7886L16.8696 60.093C15.9056 59.5364 15.1048 58.7361 14.5478 57.7723C13.9907 56.8086 14.0011 46.6132 14 45.5M69.974 26.0406C69.417 25.0768 68.6162 24.2765 67.6522 23.7199L45.4348 11.0243C44.4698 10.4671 43.3752 10.1738 42.2609 10.1738C41.1466 10.1738 40.052 10.4671 39.087 11.0243L16.8696 23.7199C15.9056 24.2765 15.5571 24.5362 15 25.5" stroke="white" stroke-width="3" stroke-linecap="round" stroke-linejoin="round"/>
<path d="M4.17395 38.6348L15.2826 25.271L42.2609 40.3053L32.7392 57.0101L4.17395 38.6348Z" stroke="white" stroke-width="3" stroke-linejoin="round"/>
<path d="M50.1956 58.5971L42.2609 41.1406L69.2391 25.271L78.7609 41.1406L50.1956 58.5971Z" stroke="white" stroke-width="3" stroke-linejoin="round"/>
</svg>
